<svg xmlns="http://www.w3.org/2000/svg" viewBox="0 0 512 512">
  <path fill="currentColor" d="M128 0c-17.6 0-32 14.4-32 32v448c0 17.6 14.4 32 32 32h320c17.6 0 32-14.4 32-32V128L352 0H128z"/>
  <path fill="#fff" d="M384 128h96L352 0v96c0 17.6 14.4 32 32 32z"/>
  <path fill="#fff" d="M176 368h160c8.8 0 16-7.2 16-16v-16c0-8.8-7.2-16-16-16H176c-8.8 0-16 7.2-16 16v16c0 8.8 7.2 16 16 16zm0-96h160c8.8 0 16-7.2 16-16v-16c0-8.8-7.2-16-16-16H176c-8.8 0-16 7.2-16 16v16c0 8.8 7.2 16 16 16zm0 160h160c8.8 0 16-7.2 16-16v-16c0-8.8-7.2-16-16-16H176c-8.8 0-16 7.2-16 16v16c0 8.8 7.2 16 16 16z"/>
</svg>
